<?xml version="1.0" encoding="UTF-8"?><svg xmlns="http://www.w3.org/2000/svg" xmlns:xlink="http://www.w3.org/1999/xlink" viewBox="0 0 16 16"><defs><style>.cls-1{clip-path:url(#clippath);}.cls-2{fill:none;}.cls-2,.cls-3,.cls-4,.cls-5,.cls-6{stroke-width:0px;}.cls-3{fill:url(#linear-gradient);}.cls-4{fill:#226db4;opacity:.1;}.cls-7{isolation:isolate;}.cls-8{mix-blend-mode:multiply;opacity:.19;}.cls-5{fill:#1b1464;}.cls-6{fill:#fff;}</style><clipPath id="clippath"><rect class="cls-2" width="16" height="16"/></clipPath><linearGradient id="linear-gradient" x1="0" y1="8" x2="16" y2="8" gradientUnits="userSpaceOnUse"><stop offset=".23" stop-color="#606aea"/><stop offset="1" stop-color="#4f56bf"/></linearGradient></defs><g class="cls-7"><g id="Layer_1"><rect class="cls-4" width="16" height="16"/><g class="cls-1"><rect class="cls-3" y="1.6" width="16" height="12.8" rx=".74" ry=".74"/><path class="cls-5" d="m16,3.38H0v-1.04c0-.41.33-.74.74-.74h14.53c.41,0,.74.33.74.74v1.04Z"/><circle class="cls-6" cx="1.7" cy="2.42" r=".19"/><circle class="cls-6" cx="2.34" cy="2.42" r=".19"/><circle class="cls-6" cx="2.99" cy="2.42" r=".19"/><g class="cls-8"><path class="cls-5" d="m11.85,10.12s-.1-.03-.14-.01l-1.07.35-.65-.38.74-.26s.07-.04.09-.08h0c.05-.1.02-.21-.06-.25-.04-.03-.1-.03-.14-.01l-1.07.35-.58-.34v-.3l.58-.34,1.07.35s.1.01.14-.01c.08-.05.11-.16.06-.24h0s-.05-.08-.09-.09l-.74-.26.65-.38,1.07.35s.1.01.14-.01c.08-.05.11-.16.06-.24h0s-.05-.08-.09-.09l-.74-.26.37-.21c.12-.07.17-.23.09-.35-.07-.12-.23-.17-.35-.09l-.37.21.14-.77s0-.08-.02-.12h0c-.05-.1-.16-.13-.24-.08-.04.03-.07.07-.09.12l-.23,1.1-.65.38.14-.77s0-.08-.02-.12h0c-.05-.1-.16-.13-.24-.08-.04.03-.07.07-.09.12l-.23,1.1-.42.24-.5-.21v-.51l.92-.75s.06-.08.06-.13c0-.1-.08-.18-.18-.12h-.01c-.04-.05-.08-.04-.12-.01l-.67.51v-.75l.92-.75s.06-.08.06-.13c0-.1-.08-.18-.18-.19h-.01s-.08.03-.12.06l-.67.51v-.42c.08-.14-.04-.26-.18-.26s-.26.26-.26.26v.42l-.59-.51s-.07-.04-.12-.06h-.01c-.1.02-.18.1-.18.19,0,.05.02.1.06.13l.84.75v.75l-.59-.51s-.07-.04-.12,0h-.01c-.1-.05-.18.03-.18.13,0,.05.02.1.06.13l.84.75v.51l-.42.21-.42-.24-.23-1.1s-.04-.09-.09-.12c-.08-.05-.19-.02-.24.06h0s-.03.09-.02.13l.14.77-.65-.38-.23-1.1s-.04-.09-.09-.12c-.08-.05-.19-.02-.24.06h0s-.03.09-.02.13l.14.77-.37-.21c-.12-.07-.28-.03-.35.09-.07.12-.03.28.09.35l.37.21-.74.26s-.07.04-.09.08h0c-.05.1-.02.21.06.25.04.03.1.03.14.01l1.07-.35.65.38-.74.26s-.07.04-.09.08h0c-.05.1-.02.21.06.25.04.03.1.03.14.01l1.07-.35.65.34v.3l-.65.34-1.07-.35s-.1-.01-.14.01c-.08.05-.11.16-.06.24h0s.05.08.09.09l.74.26-.65.38-1.07-.35s-.1-.01-.14.01c-.08.05-.11.16-.06.24h0s.05.08.09.09l.74.26-.37.21c-.12.07-.17.23-.09.35.07.12.23.17.35.09l.37-.21-.14.77s0,.08.02.12h0c.05.1.16.13.24.08.04-.03.07-.07.09-.12l.23-1.1.65-.38-.14.77s0,.08.02.12h0c.05.1.16.13.24.08.04-.03.07-.07.09-.12l.23-1.1.42-.24.42.21v.51l-.84.75s-.06.08-.06.13c0,.1.08.18.18.15h.01s.08.02.12-.01l.59-.51v.75l-.84.75s-.06.08-.06.13c0,.1.08.18.18.22h.01s.08-.05.12-.08l.59-.51v.42c0,.14.12.26.26.26s.18-.26.18-.26v-.42l.67.51s.07.04.12.08h.01c.1-.04.18-.12.18-.22,0-.05-.02-.1-.06-.13l-.92-.75v-.75l.67.51s.07.04.12.01h.01c.1.03.18-.05.18-.15,0-.05-.02-.1-.06-.13l-.92-.75v-.51l.5-.21.42.24.23,1.1s.04.09.09.12c.08.05.19.02.24-.06h0s.03-.09.02-.13l-.14-.77.65.38.23,1.1s.04.09.09.12c.08.05.19.02.24-.06h0s.03-.09.02-.13l-.14-.77.37.21c.12.07.28.03.35-.09.07-.12.03-.28-.09-.35l-.37-.21.74-.26s.07-.04.09-.08h0c.05-.1.02-.21-.07-.25Zm-3.48-.52l-.18.13-.26-.13v-.51l.26-.13.18.13v.51Z"/></g><path class="cls-6" d="m11.38,9.66s-.1-.03-.15-.01l-1.07.36-.65-.38.74-.26s.07-.04.1-.08h0c.05-.1.02-.21-.07-.26-.04-.03-.1-.03-.15-.01l-1.07.36-.59-.34v-.3l.59-.34,1.07.36s.1.01.15-.01c.09-.05.11-.16.07-.24h0s-.06-.08-.1-.09l-.74-.26.65-.38,1.07.36s.1.01.15-.01c.09-.05.11-.16.07-.24h0s-.06-.08-.1-.09l-.74-.26.37-.21c.12-.07.17-.23.09-.35-.07-.12-.23-.17-.35-.09l-.37.21.14-.77s0-.09-.02-.12h0c-.05-.1-.16-.13-.24-.08-.04.03-.08.07-.09.12l-.23,1.11-.65.38.14-.77s0-.09-.02-.12h0c-.05-.1-.16-.13-.24-.08-.04.03-.08.07-.09.12l-.23,1.11-.42.24-.5-.21v-.52l.92-.75s.06-.08.06-.13c0-.1-.08-.18-.18-.13h-.01c-.04-.05-.08-.04-.12-.01l-.67.51v-.76l.92-.75s.06-.08.06-.13c0-.1-.08-.18-.18-.19h-.01s-.08.03-.12.06l-.67.51v-.43c.08-.14-.04-.26-.18-.26s-.26.26-.26.26v.43l-.59-.51s-.07-.04-.12-.06h-.01c-.1.02-.18.1-.18.19,0,.05.02.1.06.13l.84.75v.76l-.59-.51s-.07-.04-.12,0h-.01c-.1-.05-.18.03-.18.13,0,.05.02.1.06.13l.84.75v.52l-.42.21-.42-.24-.23-1.11s-.04-.09-.09-.12c-.09-.05-.19-.02-.24.07h0s-.03.09-.02.13l.14.77-.65-.38-.23-1.11s-.04-.09-.09-.12c-.09-.05-.19-.02-.24.07h0s-.03.09-.02.13l.14.77-.37-.21c-.12-.07-.28-.03-.35.09-.07.12-.03.28.09.35l.37.21-.74.26s-.07.04-.1.08h0c-.05.1-.02.21.07.26.04.03.1.03.15.01l1.07-.36.65.38-.74.26s-.07.04-.1.08h0c-.05.1-.02.21.07.26.04.03.1.03.15.01l1.07-.36.66.34v.3l-.66.34-1.07-.36s-.1-.01-.15.01c-.09.05-.11.16-.07.24h0s.06.08.1.09l.74.26-.65.38-1.07-.36s-.1-.01-.15.01c-.09.05-.11.16-.07.24h0s.06.08.1.09l.74.26-.37.21c-.12.07-.17.23-.09.35.07.12.23.17.35.09l.37-.21-.14.77s0,.09.02.12h0c.05.1.16.13.24.08.04-.03.08-.07.09-.12l.23-1.11.65-.38-.14.77s0,.09.02.12h0c.05.1.16.13.24.08.04-.03.08-.07.09-.12l.23-1.11.42-.24.42.21v.52l-.84.75s-.06.08-.06.13c0,.1.08.18.18.15h.01s.08.02.12-.01l.59-.51v.76l-.84.75s-.06.08-.06.13c0,.1.08.18.18.22h.01s.08-.05.12-.08l.59-.51v.43c0,.14.12.26.26.26s.18-.26.18-.26v-.43l.67.51s.07.04.12.08h.01c.1-.04.18-.12.18-.22,0-.05-.02-.1-.06-.13l-.92-.75v-.76l.67.51s.07.04.12.01h.01c.1.03.18-.05.18-.15,0-.05-.02-.1-.06-.13l-.92-.75v-.52l.5-.21.42.24.23,1.11s.04.09.09.12c.09.05.19.02.24-.07h0s.03-.09.02-.13l-.14-.77.65.38.23,1.11s.04.09.09.12c.09.05.19.02.24-.07h0s.03-.09.02-.13l-.14-.77.37.21c.12.07.28.03.35-.09.07-.12.03-.28-.09-.35l-.37-.21.74-.26s.07-.04.1-.08h0c.05-.1.02-.21-.07-.26Zm-3.49-.52l-.18.13-.26-.13v-.52l.26-.13.18.13v.52Z"/></g></g></g></svg>